<svg height="218" viewBox="0 0 218 218" width="218" xmlns="http://www.w3.org/2000/svg">
    <g fill="none" fill-rule="evenodd">
        <path d="m25.423891 200.774475c-.0731018-.184059-.2493293-.304155-.4477485-.304155h-3.0441676c-.1971138 0-.3746468.120096-.4477486.304155l-6.3206946 16.066731c-.0587425.147509-.040467.314599.0496048.445138.0900719.131844.2375809.210167.3968384.210167h2.3340359c.365509 0 .6814132-.107042.9385748-.31982.2388863-.197114.4046707-.425557.489521-.672275l1.0847784-2.963234h5.9839042l1.0926108 2.985425c.1122635.264994.2832695.490827.5091018.67097.2493293.198419.5639281.298934.9346587.298934h2.3105389c.1592575 0 .3080719-.078323.3968383-.208862.0900719-.131844.1083473-.298934.0496048-.446443zm-2.133006 5.029665c.0522156-.13315.1057366-.278048.1592575-.436.053521.15012.1044312.284575.1527306.403365l1.7191976 4.698096h-3.736024zm29.0515677-5.334342h-2.9880359c-.2662994 0-.4803833.215389-.4803833.480383l-.0013054 9.622024c0 .560012-.0757125 1.069114-.2245269 1.512946-.1448982.433389-.3537605.802814-.6200599 1.100443-.264994.297629-.5848144.522156-.9777365.68794-.7897605.332874-1.9371976.332874-2.7256527.001306-.3877006-.16448-.7179641-.398144-.9842635-.694468-.2702155-.301544-.4803832-.67358-.6252814-1.105664-.1488144-.443833-.224527-.952934-.224527-1.514252v-9.610275c0-.264994-.2153892-.480383-.4816886-.480383h-2.9880359c-.264994 0-.4803832.215389-.4803832.480383v9.622024c0 1.010371.1657844 1.960694.4921317 2.820946.3289581.869389.8093413 1.630431 1.4267904 2.26485.6187545.633114 1.378491 1.134383 2.2596288 1.488144.8746107.35115 1.8732335.528683 2.968455.528683 1.0860839 0 2.0820959-.177533 2.9567066-.528683.8798324-.352455 1.6395689-.853725 2.2596288-1.488144.6174491-.634419 1.0978323-1.395461 1.4267904-2.26485.3263473-.860252.4921317-1.810575.4921317-2.820946v-9.622024c0-.264994-.2140838-.480383-.4803832-.480383m21.2660958 0h-12.6766347c-.2662994 0-.4816887.215389-.4816887.480383v2.455437c0 .266299.2153893.480383.4816887.480383h4.3626108v13.13091c0 .264994.2153892.480384.4816886.480384h2.9880359c.264994 0 .4803832-.21539.4803832-.480384v-13.13091h4.3639162c.2662994 0 .4803832-.214084.4803832-.480383v-2.455437c0-.264994-.2140838-.480383-.4803832-.480383m22.9654515 4.060674c-.3524551-.642252-.7871497-1.232288-1.2923353-1.753138-.5051857-.522156-1.0847785-.971209-1.7231138-1.338024-.6331138-.364203-1.338024-.648778-2.0951497-.848503-.754515-.198419-1.5690778-.298934-2.421497-.298934-1.2714491 0-2.4502156.219305-3.5049701.652695-1.0560598.434694-1.9750539 1.048227-2.733485 1.826239-.7558204.775401-1.3497725 1.706144-1.7635808 2.764815-.4138084 1.054754-.6226707 2.21394-.6226707 3.447532 0 1.233593.2088623 2.394084.6226707 3.447533.4138083 1.058671 1.0064551 1.989414 1.7635808 2.76612.7584311.776707 1.6774252 1.391545 2.733485 1.824934 1.0534491.43339 2.2322156.652695 3.5049701.652695 1.2792814 0 2.4632695-.219305 3.5154132-.652695 1.0573652-.433389 1.9750539-1.048227 2.7295688-1.824934.7519042-.776706 1.3419401-1.708754 1.7531378-2.767425.4085868-1.05606.6161437-2.21394.6161437-3.446228 0-.819784-.0926827-1.613461-.2754372-2.358838-.1840598-.749293-.4555808-1.454203-.8067305-2.093844m-7.5320958 9.627245c-.7179641 0-1.3693533-.117485-1.9319761-.352455-.5574012-.229748-1.0377844-.563928-1.4294012-.994706-.3929221-.434695-.7022994-.976431-.9176886-1.60824-.218-.647473-.3289581-1.39285-.3289581-2.219162 0-.825005.1109581-1.570383.3289581-2.217856.2153892-.634419.5247665-1.177461.918994-1.614766.3903114-.433389.8693893-.77018 1.4280958-.999928.5639282-.23497 1.214012-.352455 1.9319761-.352455s1.3680479.117485 1.931976.351149c.5574012.231054 1.0338683.566539 1.4202635.999928.3916168.437306.6983832.980348.9150779 1.616072.2193053.647473.328958 1.392851.328958 2.217856 0 .826312-.1096527 1.571689-.328958 2.217857-.2153893.635724-.5221557 1.177461-.9137725 1.61085-.3877006.429473-.8654731.763653-1.4215689.993401-.5639281.23497-1.2140119.352455-1.931976.352455m27.7062338-12.133462c-.560012-.494742-1.271449-.882443-2.116036-1.153964-.830228-.264994-1.818407-.400754-2.935821-.400754h-5.221556c-.264994 0-.480384.215389-.480384.480383v16.06673c0 .264994.21539.480384.480384.480384h2.988035c.2663 0 .481689-.21539.481689-.480384v-5.174563h1.751832c1.091306 0 2.063821-.138371 2.890132-.413808.840671-.278048 1.554719-.678802 2.119952-1.187904.571761-.514324 1.006455-1.136994 1.292336-1.849737.280658-.702299.422946-1.481616.422946-2.318371 0-.80412-.137066-1.558635-.405976-2.242659-.275437-.698383-.7023-1.305389-1.267533-1.805353m-5.051857 6.52303h-1.751832v-4.805138h1.751832c.502575 0 .939881.057437 1.298863.172312.339401.107042.618754.261078.831533.456886.214083.195808.368119.426862.476467.706215.110958.292408.168395.626587.168395.994707 0 .392922-.057437.750599-.171006 1.063892-.108347.297629-.267605.543042-.484299.747988-.219306.207557-.50127.369425-.839366.482994-.356371.120096-.785844.180144-1.280587.180144m24.610503 5.521927h-5.942131l.001305-13.119162c0-.264994-.215389-.480383-.480383-.480383h-2.989341c-.2663 0-.480384.215389-.480384.480383l-.001305 16.066731c0 .264994.215389.480383.481689.480383h9.41055c.264994 0 .480384-.215389.480384-.480383v-2.467186c0-.264994-.21539-.480383-.480384-.480383m16.701672-13.294606c-.071796-.18406-.249329-.304156-.447748-.304156h-3.044168c-.197114 0-.374647.120096-.447748.304156l-6.320695 16.066731c-.058743.147509-.040467.314598.049605.445137.090072.131845.238886.211473.396838.211473h2.334036c.365509 0 .681413-.108347.938575-.321125.238886-.197114.404671-.425557.489521-.672276l1.084778-2.963233h5.983904l1.092611 2.984119c.112264.2663.28327.492132.509102.672276.249329.198419.563928.300239.934659.300239h2.310539c.159257 0 .308072-.079628.396838-.210167.090072-.131845.108347-.298934.049605-.446443zm-2.133006 5.029665c.052216-.13315.105737-.278048.160563-.436.052216.150119.103126.284575.151425.403365l1.719198 4.698096h-3.736024zm27.396857-5.334473h-11.88818c-.266299 0-.481689.215389-.481689.480383v2.378419c0 .264994.21539.480383.481689.480383h7.093485l-7.734431 10.946994c-.103126.148815-.187976.311988-.254551.48691-.071796.191893-.108347.392923-.108347.596563v1.177461c0 .264994.215389.480384.480383.480384h12.222359c.264994 0 .480383-.21539.480383-.480384v-2.388862c0-.264994-.215389-.480383-.480383-.480383h-7.414611l7.710935-10.892168c.246718-.361593.373341-.767569.373341-1.204874v-1.100443c0-.264994-.215389-.480383-.480383-.480383m23.268171 16.371016-6.310252-16.06673c-.073101-.18406-.249329-.304156-.447748-.304156h-3.044168c-.198419 0-.374647.120096-.447748.304156l-6.322 16.06673c-.058743.147509-.039162.314599.049604.446443.090072.130539.238887.210168.398144.210168h2.332731c.365509 0 .682718-.108347.93988-.321126.237581-.197113.403365-.425556.489521-.672275l1.084778-2.961928h5.982599l1.093916 2.98412c.112264.266299.28327.492131.509102.67097.248024.199724.562623.300239.933353.300239h2.310539c.159258 0 .308072-.079629.398144-.210168.088767-.130538.107042-.297628.049605-.446443zm-8.444563-11.037065c.052216-.131845.105736-.278048.160563-.436.053521.150119.103126.284574.15273.403365l1.717893 4.698096h-3.734719z"
              fill="#004371"/>
        <path d="m216.672941 117.794277h-216.14765238c-.32112575 0-.52476646-.169701-.52476646-.490827v-5.080575c0-.314598.20364071-.47255.52476646-.47255h216.14765238c.339402 0 .505186.151425.505186.490826v5.058383c0 .365509-.178838.494743-.505186.494743"
              fill="#f30050"/>
        <path d="m127.659756 93.221891-.124012-.1840599-1.289725-1.4842275c-.013054-.030024-.026108-.0652695-.037856-.1070419l-1.197042-3.900503-.032635-.100515c-2.190443-6.439485-11.08406-6.439485-16.396994-6.439485-5.278994 0-14.1151734 0-16.3826345 6.3977126l-1.2557844 4.0819521c-.006527.0221916-.0156647.0443832-.0248024.0665748l-1.2923354 1.4855329-.1253173.1853653c-.7571258 1.1343832-1.1578803 2.4554371-1.1578803 3.8195689v9.2029937c0 .318515.1657845.490827.5182395.490827h6.0074012c.342012 0 .489521-.161869.489521-.490827v-9.1090057l1.207485-1.3876287.124012-.1853653c.4320838-.6474731.7623473-1.3523833.9712096-2.0585988l1.1644072-3.7921557c.164479-.3628982.9699042-.895497 2.7426228-1.2531737 2.176084-.4386107 4.858659-.4386107 7.013856-.4386107 2.161725 0 4.852132 0 7.037354.4386107 1.666982.3354851 2.554646.8498084 2.709988 1.2218443l1.163101 3.7882396c.219306.7440718.549569 1.4476766.981653 2.0938443l.122707.1840599 1.20879 1.3889341v9.1090057c0 .318515.165784.490827.516934.490827h6.008707c.340706 0 .489521-.161869.489521-.490827v-9.2029937c0-1.3654372-.400755-2.686491-1.160491-3.8208743m70.874149-.1732251-15.84873-1.7453054-.198419-.0156647c-.208863-.0104431-.411198-.0913772-.571761-.2258323l-7.489018-6.298503-.229748-.1762276c-2.237437-1.5873533-5.066216-2.4254131-8.180875-2.4254131-.979041 0-3.99188.1396766-8.83879.3681197-3.558491.1683952-7.590838.3602874-8.465449.3602874-2.805281 0-6.122275 1.1578803-8.064695 2.81703-1.905868 1.626515-4.545365 4.960479-4.989197 5.5257126-1.182683 1.4294012-1.834072 3.2347545-1.834072 5.0910179v9.9222636c0 .317209.165784.489521.518239.489521h6.007402c.340706 0 .489521-.160563.489521-.489521v-9.9222636c0-.2284431.080934-.4503593.229748-.6265868l.08224-.1018204c.994706-1.2714491 2.961928-3.6446467 4.051928-4.5531976.800203-.6683592 2.307928-1.0182036 3.508886-1.1382994 1.281892-.1266227 3.849593-.1958083 8.797018-.3668143 3.575461-.124012 7.623473-.3602875 8.507221-.3602875 1.599102 0 2.985426.3668144 4.020599 1.0612815l7.365006 6.1927664c1.289725 1.0847785 2.918851 1.7400839 4.598887 1.8549581l15.677724 1.7257246c.46994.065269 1.150048.377257 1.150048.98818v5.246359c0 .317209.165784.489521.518239.489521h6.007402c.340706 0 .489521-.160563.489521-.489521v-5.246359c0-4.0741201-3.074192-7.4172219-7.308875-7.9511261m-35.411293-18.0652815c-.442527.0861557-.690551-.1396766-.845892-.4816886-8.636455-22.1550659-30.292863-36.989509-54.126659-36.989509-23.9134251 0-45.6364071 14.9349581-54.2128143 37.2166467-.124012.2819641-.2976287.3850899-.5913413.2989342l-5.3520958-2.0024671c-.2676048-.1214012-.3106827-.389006-.2310539-.6383353 9.5423952-24.8324192 33.7456168-41.4800479 60.3873053-41.4800479 26.619497 0 50.801832 16.6176048 60.363808 41.413473.088767.2897964.013054.5913413-.255856.7101318zm-52.130066-51.9153293h-5.698024c-.321126 0-.446443-.2349701-.446443-.5547904v-22.03888626c0-.30937724.079629-.47385628.434695-.47385628h5.733269c.331569 0 .437306.16447904.437306.47385628v22.03888626c0 .3668143-.127929.5547904-.460803.5547904m-47.997334 13.4259281-8.4302036-12.0382994c-.1827545-.2271377-.1566467-.4686347.1018203-.6500838l4.6706827-3.2543353c.2506347-.1814491.4751617-.130539.6396407.1200958l8.4302036 12.0382994c.1370659.2258323.1605629.5012694-.0809341.6735808l-4.678515 3.2791377c-.2636886.1605629-.4581916.0796288-.6526946-.1683952m-22.0839222 30.0078958-20.3314371-9.9575089c-.2519401-.130539-.3668144-.3106827-.2467186-.5678444l2.5415928-5.1850059c.130539-.2545509.3746468-.2884911.6083114-.1801438l20.4071497 9.9953653c.2636886.1331497.3524551.3263473.2114731.6344192l-2.4893773 5.084491c-.140982.2558563-.4320838.2989341-.700994.1762275m112.3980592-30.0078958 8.430203-12.0382994c.182755-.2271377.156647-.4686347-.103126-.6500838l-4.670682-3.2543353c-.250635-.1814491-.473857-.130539-.638336.1200958l-8.430203 12.0382994c-.137066.2258323-.160563.5012694.080934.6735808l4.678515 3.2791377c.262383.1605629.458192.0796288.652695-.1683952m22.083269 30.0078958 20.331437-9.9575089c.253246-.130539.366814-.3106827.246719-.5678444l-2.541593-5.1850059c-.130539-.2545509-.374647-.2884911-.608312-.1801438l-20.407149 9.9953653c-.263689.1331497-.352455.3263473-.211473.6344192l2.489377 5.084491c.142287.2558563.433389.2989341.700994.1762275m-99.2095809 24.29003-4.9891976-.4947425c-.3093772-.0613533-.5704551-.1096527-1.0625868-.5795928-1.1161078-1.0651977-2.763509-3.1029102-3.4253413-3.68903-1.3758803-1.2153174-3.6681437-2.2596287-6.1301078-2.7948383-4.0388743-.8746108-11.5318084-.4346946-12.8019521-.3524551-1.8314611.0313293-3.6041796.6931617-5.0074731 1.8745389l-7.4929341 6.2998084c-.1592575.1344551-.3642036.2153892-.5717605.2258323l-16.0040718 1.7557485c-4.3351976.4829941-7.3623952 3.7569102-7.3623952 7.9615686v5.247665c0 .31721.1657844.489521.5182395.489521h6.010012c.3420119 0 .4895209-.160563.4895209-.489521v-4.480096c0-.891581.41903-1.61085 1.8849821-1.754443l14.9493173-1.7296407c1.6813413-.1135688 3.3117725-.7701796 4.6028024-1.8562634l7.4929341-6.2998084c.2924072-.2193054.8615569-.2362755.8615569-.2362755 2.1212575-.1435928 8.2278683-.3863952 10.9443833.2023354 1.6186826.3511497 2.6995449.9568503 2.9697604 1.1957365.5260719.4634132 1.9241438 1.8797605 2.8052815 2.7896168 1.3419401 1.8184071 3.3783473 2.9802035 5.6392814 3.2034251l4.9878922.4947425c.4973533.0482994.8759162.466024.8759162.965988v7.5934487h.0130539c.0313293.257162.1892814.400755.5038802.400755h6.0113174c.3054611 0 .4490539-.137066.4764671-.400755h.0130539v-7.5934487c0-4.1067544-3.1146587-7.5451497-7.2018324-7.9498203"
              fill="#ffbf14"/>
        <path d="m30.774812 170.032951h1.7087545c.7832335 0 1.2100958.426862 1.2100958 1.210096v4.626299c0 .284575 0 .56915-.2845749.781928-.3563712.356372-2.4201916 1.352383-6.3350539 1.352383-6.6901197 0-9.6076646-3.700778-9.6076646-12.382922v-34.660694c0-.711437.4986586-1.210096 1.1382994-1.210096h6.9746946c.7832335 0 1.3523832.428168 1.3523832 1.281892v34.517102c0 2.776563.5691497 4.484012 3.8430659 4.484012m25.7635533 8.682796c-11.0318443 0-19.9985629-8.682143-19.9985629-19.215329 0-10.604982 8.9667186-19.216635 19.9985629-19.216635 11.0305389 0 19.9985628 8.611653 19.9985628 19.216635 0 10.533186-8.9680239 19.215329-19.9985628 19.215329m0-30.104886c-5.3377366 0-10.2486108 4.412216-10.2486108 10.889557 0 6.404239 4.9108742 10.888251 10.2486108 10.888251 5.3377365 0 10.2486107-4.554503 10.2486107-10.888251 0-6.405545-4.9108742-10.889557-10.2486107-10.889557m59.9975157 28.681359h-7.188778c-.711437 0-1.066503-.498658-1.066503-1.280586v-17.864252c0-5.764599-1.921533-9.537174-9.0398204-9.537174-4.4840119 0-7.9707065 1.067809-7.9707065 1.067809v26.333617c0 .781928-.3550659 1.280586-1.1396048 1.280586h-7.1156767c-.8537245 0-1.1396048-.426862-1.1396048-1.280586v-32.310994c0-.712743.5704551-1.139605.9973174-1.281893 1.9920239-.640946 8.042503-2.135616 16.3682754-2.135616 10.8190664 0 18.4334014 4.199437 18.4334014 15.301772v20.426731c0 .781928-.497353 1.280586-1.1383 1.280586m25.266462 15.017067c-6.832408 0-12.809785-2.989341-14.945402-4.341724-.783233-.498659-.356371-1.210096-.071796-1.707449l2.847054-4.413521c.355066-.426862.781928-.426862 1.280587-.212779.569149.212779 5.123652 2.490683 10.604982 2.490683 6.263257 0 9.607664-2.562479 9.607664-8.682144-1.565161.56915-4.626299 1.280587-8.539856 1.280587-11.316419 0-19.928072-7.615641-19.928072-18.07703 0-9.252599 7.188779-18.361605 21.066371-18.361605 8.68345 0 13.94939 1.352384 15.658144 2.206108.425557.284575.781928.711437.781928 1.210096v29.748515c0 13.308443-5.480024 18.860263-18.361604 18.860263m1.921532-43.627413c-6.263257 0-10.81776 3.772575-10.81776 9.964036 0 5.83509 4.554503 9.89224 10.81776 9.89224 4.910875 0 7.045186-1.1383 7.045186-1.1383v-17.792455s-2.134311-.925521-7.045186-.925521m41.420914 30.033873c-11.030539 0-19.998563-8.682143-19.998563-19.215329 0-10.604982 8.968024-19.216635 19.998563-19.216635 11.031845 0 19.998563 8.611653 19.998563 19.216635 0 10.533186-8.966718 19.215329-19.998563 19.215329m0-30.104886c-5.337736 0-10.248611 4.412216-10.248611 10.889557 0 6.404239 4.910875 10.888251 10.248611 10.888251 5.337737 0 10.248611-4.554503 10.248611-10.888251 0-6.405545-4.910874-10.889557-10.248611-10.889557"
              fill="#f30050"/>
    </g>
</svg>