<?xml version="1.0" encoding="UTF-8"?>
<svg width="273px" height="19px" viewBox="0 0 273 19" version="1.1" xmlns="http://www.w3.org/2000/svg" xmlns:xlink="http://www.w3.org/1999/xlink">
    <!-- Generator: sketchtool 51.2 (57519) - http://www.bohemiancoding.com/sketch -->
    <title>6BDA28FF-23DC-43BB-8767-30721BB3FF8C</title>
    <desc>Created with sketchtool.</desc>
    <defs>
        <polygon id="path-1" points="0 0 218.746253 0 218.746253 15.3253333 0 15.3253333"></polygon>
    </defs>
    <g id="Page-1" stroke="none" stroke-width="1" fill="none" fill-rule="evenodd">
        <g id="Extra-large:-Desktops---12-col" transform="translate(-330.000000, -1187.000000)">
            <g id="content" transform="translate(138.000000, 47.000000)">
                <g id="slogan-LV" transform="translate(192.000000, 1140.000000)">
                    <rect id="Background" x="0" y="0" width="273" height="19"></rect>
                    <g>
                        <path d="M0,15.5288627 C0.006969169,15.8648814 0.148965987,15.9911106 0.439057647,16 L45.5618135,16 C45.851034,15.9911106 45.9930308,15.8648814 46,15.5288627 L46,0.471137285 C45.9930308,0.134229679 45.851034,0.00888938274 45.5618135,0 L45.5461329,0 L0.439057647,0 C0.148965987,0.00888938274 0.006969169,0.134229679 0,0.471137285 L0,15.5288627 Z" id="Fill-1" fill="#FFBF14"></path>
                        <g id="Group-5" transform="translate(54.000000, 3.000000)">
                            <mask id="mask-2" fill="white">
                                <use xlink:href="#path-1"></use>
                            </mask>
                            <g id="Clip-4"></g>
                            <path d="M2.409,10.4488889 L2.409,7.16177778 L4.45673622,7.16177778 C4.82144882,7.16177778 5.1275315,7.19733333 5.37670866,7.26933333 C5.62588583,7.34133333 5.82764173,7.44444444 5.98283858,7.57955556 C6.13803543,7.71555556 6.25098425,7.87911111 6.31996063,8.07288889 C6.38979921,8.26577778 6.4242874,8.48355556 6.4242874,8.72711111 C6.4242874,8.94755556 6.39497244,9.16177778 6.33634252,9.368 C6.2777126,9.57511111 6.17252362,9.75911111 6.0233622,9.91911111 C5.87333858,10.0791111 5.67330709,10.2071111 5.42499213,10.304 C5.17581496,10.4008889 4.85852362,10.4488889 4.47311811,10.4488889 L2.409,10.4488889 Z M4.13599606,2.22666667 C4.47311811,2.22666667 4.76454331,2.256 5.01113386,2.31377778 C5.25772441,2.37155556 5.46120472,2.464 5.6215748,2.59111111 C5.78194488,2.71822222 5.90092913,2.88622222 5.97852756,3.096 C6.05612598,3.30577778 6.0957874,3.56 6.0957874,3.85777778 C6.0957874,4.15111111 6.04836614,4.4 5.95524803,4.60711111 C5.86126772,4.81422222 5.72590157,4.98133333 5.54914961,5.10844444 C5.37239764,5.23555556 5.15253543,5.328 4.8904252,5.38577778 C4.62831496,5.44355556 4.32826772,5.47288889 3.99114567,5.47288889 L2.409,5.47288889 L2.409,2.22666667 L4.13599606,2.22666667 Z M0,0.339555556 L0,12.3528889 L4.51277953,12.3528889 C5.20426772,12.3528889 5.81557087,12.264 6.34841339,12.0844444 C6.88125591,11.9048889 7.32960236,11.6551111 7.69345276,11.3351111 C8.05730315,11.0151111 8.33493307,10.6364444 8.52461811,10.2008889 C8.71516535,9.76444444 8.81000787,9.29244444 8.81000787,8.78488889 C8.81000787,8.08888889 8.61946063,7.52355556 8.24009055,7.08711111 C7.85985827,6.65155556 7.27355906,6.33688889 6.48119291,6.14311111 C6.83383465,6.01688889 7.13905512,5.86222222 7.39685433,5.68 C7.65379134,5.49777778 7.86330709,5.29511111 8.02712598,5.07111111 C8.19008268,4.848 8.31079134,4.60888889 8.38838976,4.35466667 C8.46598819,4.10133333 8.5047874,3.83644444 8.5047874,3.56 C8.5047874,3.06844444 8.42460236,2.624 8.26423228,2.22666667 C8.103,1.82933333 7.8477874,1.49155556 7.49687008,1.21244444 C7.14595276,0.934222222 6.69329528,0.719111111 6.13975984,0.567111111 C5.5853622,0.415111111 4.91715354,0.339555556 4.13599606,0.339555556 L0,0.339555556 Z M15.2670591,3.81688889 L15.2670591,9.952 C15.0204685,10.1946667 14.7609449,10.3866667 14.4884882,10.5271111 C14.2151693,10.6684444 13.9228819,10.7386667 13.6124882,10.7386667 C13.1951811,10.7386667 12.8804764,10.608 12.6692362,10.3457778 C12.4571339,10.0835556 12.3519449,9.71466667 12.3519449,9.24 L12.3519449,3.81688889 L10.1352165,3.81688889 L10.1352165,9.24 C10.1352165,9.71466667 10.1964331,10.1511111 10.3197283,10.5484444 C10.4430236,10.9457778 10.6223622,11.288 10.8577441,11.5751111 C11.093126,11.8622222 11.3862756,12.0853333 11.7371929,12.2453333 C12.0881102,12.4053333 12.4881732,12.4853333 12.9382441,12.4853333 C13.2107008,12.4853333 13.464189,12.4577778 13.6969843,12.4026667 C13.9297795,12.3475556 14.1470551,12.2702222 14.3479488,12.1706667 C14.5479803,12.072 14.7368031,11.9528889 14.9135551,11.8151111 C15.0903071,11.6773333 15.2618858,11.5253333 15.4274291,11.36 L15.5722795,11.9555556 C15.6524646,12.2204444 15.8343898,12.3528889 16.1180551,12.3528889 L17.4837874,12.3528889 L17.4837874,3.81688889 L15.2670591,3.81688889 Z M25.2177638,3.81688889 C25.084122,3.81688889 24.9608268,3.85511111 24.8487402,3.93244444 C24.7357913,4.00977778 24.6581929,4.10933333 24.6159449,4.23111111 L23.1536457,8.304 C23.0303504,8.63022222 22.9208504,8.95555556 22.8242835,9.28177778 C22.7820354,9.12177778 22.7372008,8.96 22.6923661,8.79733333 C22.6466693,8.63466667 22.5940748,8.47288889 22.5354449,8.31288889 L20.9610591,4.23111111 C20.9179488,4.12 20.8489724,4.024 20.7524055,3.94133333 C20.6558386,3.85777778 20.5196102,3.81688889 20.3428583,3.81688889 L18.3994488,3.81688889 L21.7241102,11.6657778 L20.1583465,15.1102222 L21.8042953,15.1102222 C22.0189843,15.1102222 22.1750433,15.072 22.2741969,14.9946667 C22.3733504,14.9173333 22.4578465,14.8008889 22.527685,14.6471111 L26.9930433,3.81688889 L25.2177638,3.81688889 Z M33.2328189,4.37155556 C33.1957441,4.16711111 33.1336654,4.024 33.0483071,3.94133333 C32.9629488,3.85777778 32.807752,3.81688889 32.5827165,3.81688889 L31.2730276,3.81688889 L31.2730276,12.3528889 L33.4897559,12.3528889 L33.4897559,7.12888889 C33.5759764,6.92444444 33.6682323,6.74222222 33.7673858,6.58222222 C33.8656772,6.42222222 33.9769016,6.28711111 34.1001969,6.17688889 C34.2234921,6.06577778 34.3640315,5.98044444 34.521815,5.92 C34.6795984,5.85955556 34.8606614,5.82844444 35.0641417,5.82844444 C35.2029567,5.82844444 35.3529803,5.84088889 35.5142126,5.86577778 C35.6745827,5.89066667 35.797878,5.90311111 35.8832362,5.90311111 C35.9798031,5.90311111 36.0556772,5.88266667 36.1125827,5.84088889 C36.168626,5.8 36.2100118,5.72355556 36.2367402,5.61333333 L36.3815906,3.92444444 C36.1453465,3.74222222 35.840126,3.65155556 35.4659291,3.65155556 C35.0055118,3.65155556 34.6037244,3.792 34.2605669,4.07377778 C33.9182717,4.35466667 33.6156378,4.73866667 33.3535276,5.224 L33.2328189,4.37155556 Z M38.9354409,7.07911111 C39.0259724,6.50488889 39.2216929,6.06311111 39.5217402,5.75377778 C39.8217874,5.44533333 40.2365079,5.29066667 40.7667638,5.29066667 C41.0504291,5.29066667 41.2935709,5.33866667 41.4970512,5.43555556 C41.7005315,5.53244444 41.8695236,5.66311111 42.0031654,5.82844444 C42.1368071,5.99466667 42.2350984,6.18488889 42.296315,6.4 C42.3575315,6.61511111 42.3885709,6.84177778 42.3885709,7.07911111 L38.9354409,7.07911111 Z M43.8663898,8.43644444 C43.9681299,8.43644444 44.0509016,8.42488889 44.1155669,8.4 C44.1793701,8.37511111 44.2302402,8.32888889 44.2681772,8.26311111 C44.305252,8.19644444 44.3319803,8.10844444 44.3483622,7.99822222 C44.3647441,7.888 44.3725039,7.74666667 44.3725039,7.576 C44.3725039,6.95733333 44.2828346,6.40711111 44.1034961,5.92355556 C43.9241575,5.44088889 43.6723937,5.03377778 43.3482047,4.70222222 C43.024878,4.37155556 42.6386102,4.11911111 42.1919882,3.94488889 C41.7445039,3.77155556 41.2564961,3.68444444 40.7262402,3.68444444 C40.0994173,3.68444444 39.5372598,3.79644444 39.0397677,4.01955556 C38.5414134,4.24355556 38.1189331,4.54577778 37.7706024,4.92622222 C37.4222717,5.30666667 37.1567126,5.75377778 36.9713386,6.26755556 C36.7868268,6.78133333 36.6945709,7.32711111 36.6945709,7.90666667 C36.6945709,8.65777778 36.8014843,9.31733333 37.0161732,9.88622222 C37.23,10.4542222 37.5231496,10.9306667 37.895622,11.3137778 C38.2672323,11.6977778 38.7035079,11.9875556 39.2044488,12.1831111 C39.7045276,12.3795556 40.2442677,12.4773333 40.8228071,12.4773333 C41.1116457,12.4773333 41.4116929,12.4568889 41.7220866,12.4151111 C42.0324803,12.3742222 42.3402874,12.2995556 42.6455079,12.192 C42.9507283,12.0844444 43.2456024,11.9377778 43.5292677,11.7528889 C43.8129331,11.568 44.0724567,11.3351111 44.3078386,11.0533333 L43.6654961,10.2257778 C43.5697913,10.0924444 43.4352874,10.0266667 43.2645709,10.0266667 C43.1300669,10.0266667 42.9947008,10.064 42.8584724,10.1386667 C42.7222441,10.2133333 42.5696339,10.296 42.4006417,10.3866667 C42.2325118,10.4782222 42.0367913,10.5608889 41.8143425,10.6355556 C41.5918937,10.7093333 41.3289213,10.7466667 41.0237008,10.7466667 C40.4236063,10.7466667 39.938185,10.5617778 39.5657126,10.192 C39.1932402,9.82222222 38.9725157,9.23733333 38.9035394,8.43644444 L43.8663898,8.43644444 Z M51.3994724,4.76088889 C51.0890787,4.44088889 50.6933268,4.18133333 50.2113543,3.98222222 C49.7293819,3.784 49.1939528,3.68444444 48.6050669,3.68444444 C48.0799843,3.68444444 47.6187047,3.75644444 47.2195039,3.89955556 C46.8203031,4.04355556 46.4874921,4.23644444 46.2193465,4.47911111 C45.952063,4.72177778 45.7511693,5.00177778 45.6175276,5.31911111 C45.4830236,5.63733333 45.4166339,5.97244444 45.4166339,6.32533333 C45.4166339,6.712 45.4735394,7.04 45.5890748,7.31111111 C45.7046102,7.58133333 45.8546339,7.80888889 46.0391457,7.99377778 C46.2236575,8.17866667 46.4348976,8.33244444 46.6737283,8.45333333 C46.9116969,8.57511111 47.1557008,8.68 47.4040157,8.768 C47.6531929,8.856 47.8980591,8.93688889 48.1394764,9.008 C48.3800315,9.08 48.5929961,9.16 48.7775079,9.248 C48.9620197,9.33688889 49.1120433,9.44 49.2275787,9.55911111 C49.342252,9.67733333 49.4000197,9.83111111 49.4000197,10.0186667 C49.4000197,10.1342222 49.3776024,10.2462222 49.3319055,10.3537778 C49.2862087,10.4613333 49.2155079,10.5582222 49.1189409,10.6435556 C49.022374,10.7288889 48.8964921,10.7964444 48.7412953,10.8462222 C48.5860984,10.896 48.4015866,10.9208889 48.1868976,10.9208889 C47.9032323,10.9208889 47.666126,10.8862222 47.4764409,10.8177778 C47.2867559,10.7484444 47.1220748,10.6737778 46.9823976,10.5937778 C46.8435827,10.5137778 46.7177008,10.4391111 46.604752,10.3706667 C46.4926654,10.3013333 46.3693701,10.2666667 46.2357283,10.2666667 C46.0960512,10.2666667 45.9831024,10.2942222 45.8942953,10.3493333 C45.8063504,10.4044444 45.7322008,10.4817778 45.6735709,10.5813333 L45.1596969,11.4337778 C45.3200669,11.5831111 45.509752,11.7208889 45.7296142,11.848 C45.9494764,11.9751111 46.1848583,12.0871111 46.436622,12.1831111 C46.6883858,12.28 46.9530827,12.3546667 47.2315748,12.4071111 C47.5100669,12.4595556 47.7911457,12.4853333 48.074811,12.4853333 C48.626622,12.4853333 49.1137677,12.4142222 49.536248,12.2702222 C49.9595906,12.1271111 50.3130945,11.928 50.5967598,11.6746667 C50.8804252,11.4204444 51.0959764,11.1182222 51.2434134,10.768 C51.3899882,10.4168889 51.4641378,10.0346667 51.4641378,9.62133333 C51.4641378,9.27288889 51.4080945,8.97688889 51.2951457,8.73066667 C51.1830591,8.48533333 51.0347598,8.27555556 50.8493858,8.10133333 C50.664874,7.928 50.4544961,7.78311111 50.2191142,7.66666667 C49.9837323,7.55111111 49.7414528,7.44888889 49.4922756,7.36088889 C49.2430984,7.272 49.0008189,7.19111111 48.765437,7.11644444 C48.5300551,7.04177778 48.3196772,6.96177778 48.1351654,6.87644444 C47.9506535,6.79022222 47.8014921,6.68977778 47.6894055,6.57422222 C47.5773189,6.45777778 47.5204134,6.31466667 47.5204134,6.14311111 C47.5204134,5.89511111 47.6195669,5.69511111 47.817874,5.54311111 C48.0161811,5.39111111 48.2946732,5.31555556 48.6533504,5.31555556 C48.8887323,5.31555556 49.0956614,5.34311111 49.2758622,5.39822222 C49.4552008,5.45333333 49.6138465,5.51288889 49.7535236,5.576 C49.8923386,5.64 50.0182205,5.69866667 50.1311693,5.75377778 C50.2432559,5.80977778 50.3527559,5.83733333 50.4605315,5.83733333 C50.5674449,5.83733333 50.6519409,5.816 50.7131575,5.77511111 C50.774374,5.73333333 50.8347283,5.66577778 50.8942205,5.57244444 L51.3994724,4.76088889 Z M55.069878,6.35822222 C55.3052598,6.05511111 55.5561614,5.82488889 55.8208583,5.66755556 C56.0855551,5.51022222 56.4140551,5.43111111 56.8046339,5.43111111 C57.0348425,5.43111111 57.2434961,5.47644444 57.4314567,5.568 C57.6185551,5.65866667 57.778063,5.80711111 57.9091181,6.01066667 C58.0401732,6.21511111 58.1419134,6.48266667 58.2143386,6.81422222 C58.2867638,7.14488889 58.3229764,7.54844444 58.3229764,8.02311111 C58.3229764,8.50311111 58.2798661,8.91733333 58.1945079,9.26488889 C58.1082874,9.61244444 57.9867165,9.89866667 57.8289331,10.1217778 C57.6711496,10.3457778 57.4823268,10.5093333 57.2624646,10.6142222 C57.0426024,10.7191111 56.7994606,10.7715556 56.531315,10.7715556 C56.2528228,10.7715556 55.992437,10.7217778 55.7484331,10.6231111 C55.5052913,10.5235556 55.2785315,10.3493333 55.069878,10.1013333 L55.069878,6.35822222 Z M54.7724173,4.21422222 C54.6818858,3.94933333 54.497374,3.81688889 54.2188819,3.81688889 L52.8531496,3.81688889 L52.8531496,15.1102222 L55.069878,15.1102222 L55.069878,11.7075556 C55.3164685,11.9448889 55.5958228,12.1324444 55.9096654,12.2702222 C56.2226457,12.408 56.6037402,12.4773333 57.053811,12.4773333 C57.5892402,12.4773333 58.0746614,12.3653333 58.5117992,12.1422222 C58.9480748,11.9182222 59.3214094,11.608 59.6318031,11.2106667 C59.9421969,10.8133333 60.1818898,10.3431111 60.3508819,9.79911111 C60.5190118,9.25511111 60.6035079,8.66311111 60.6035079,8.02311111 C60.6035079,7.32711111 60.5284961,6.70933333 60.3784724,6.168 C60.2284488,5.62755556 60.0197953,5.17066667 59.7525118,4.79822222 C59.4843661,4.42488889 59.1644882,4.14133333 58.792878,3.94488889 C58.4204055,3.74933333 58.0117205,3.65155556 57.567685,3.65155556 C57.2788465,3.65155556 57.0107008,3.68266667 56.7649724,3.74666667 C56.5183819,3.80977778 56.2881732,3.89777778 56.0734843,4.01155556 C55.8596575,4.12444444 55.6587638,4.25955556 55.4716654,4.41688889 C55.2837047,4.57422222 55.1069528,4.74666667 54.9414094,4.93422222 L54.7724173,4.21422222 Z M63.8238425,7.07911111 C63.9152362,6.50488889 64.1100945,6.06311111 64.4101417,5.75377778 C64.710189,5.44533333 65.1249094,5.29066667 65.6551654,5.29066667 C65.9388307,5.29066667 66.1828346,5.33866667 66.386315,5.43555556 C66.5897953,5.53244444 66.7579252,5.66311111 66.8924291,5.82844444 C67.0260709,5.99466667 67.1235,6.18488889 67.1855787,6.4 C67.2467953,6.61511111 67.2778346,6.84177778 67.2778346,7.07911111 L63.8238425,7.07911111 Z M68.7556535,8.43644444 C68.8565315,8.43644444 68.9401654,8.42488889 69.0039685,8.4 C69.0686339,8.37511111 69.1195039,8.32888889 69.1565787,8.26311111 C69.1945157,8.19644444 69.2212441,8.10844444 69.2367638,7.99822222 C69.2531457,7.888 69.2609055,7.74666667 69.2609055,7.576 C69.2609055,6.95733333 69.1712362,6.40711111 68.9918976,5.92355556 C68.8125591,5.44088889 68.5607953,5.03377778 68.2374685,4.70222222 C67.9132795,4.37155556 67.527874,4.11911111 67.0803898,3.94488889 C66.6337677,3.77155556 66.1448976,3.68444444 65.6146417,3.68444444 C64.9886811,3.68444444 64.4265236,3.79644444 63.9281693,4.01955556 C63.4306772,4.24355556 63.0073346,4.54577778 62.6598661,4.92622222 C62.3115354,5.30666667 62.0451142,5.75377778 61.8606024,6.26755556 C61.6760906,6.78133333 61.5829724,7.32711111 61.5829724,7.90666667 C61.5829724,8.65777778 61.690748,9.31733333 61.9045748,9.88622222 C62.1184016,10.4542222 62.4115512,10.9306667 62.7840236,11.3137778 C63.1564961,11.6977778 63.5927717,11.9875556 64.0928504,12.1831111 C64.5937913,12.3795556 65.1335315,12.4773333 65.7112087,12.4773333 C66.0009094,12.4773333 66.3000945,12.4568889 66.6113504,12.4151111 C66.9217441,12.3742222 67.2295512,12.2995556 67.5347717,12.192 C67.8399921,12.0844444 68.1340039,11.9377778 68.4176693,11.7528889 C68.7013346,11.568 68.9617205,11.3351111 69.1971024,11.0533333 L68.5547598,10.2257778 C68.4581929,10.0924444 68.3245512,10.0266667 68.1529724,10.0266667 C68.0193307,10.0266667 67.8839646,10.064 67.7477362,10.1386667 C67.6106457,10.2133333 67.4580354,10.296 67.2899055,10.3866667 C67.1209134,10.4782222 66.9251929,10.5608889 66.7036063,10.6355556 C66.4811575,10.7093333 66.2173228,10.7466667 65.9121024,10.7466667 C65.3128701,10.7466667 64.8265866,10.5617778 64.4549764,10.192 C64.0825039,9.82222222 63.8617795,9.23733333 63.7919409,8.43644444 L68.7556535,8.43644444 Z M77.2199173,4.90933333 C76.839685,4.512 76.4120315,4.20888889 75.9352323,3.99911111 C75.4584331,3.78933333 74.9040354,3.68444444 74.2729016,3.68444444 C73.6090039,3.68444444 73.0235669,3.79644444 72.518315,4.01955556 C72.0122008,4.24355556 71.5871339,4.55111111 71.2448386,4.94311111 C70.9025433,5.33511111 70.6430197,5.79822222 70.4662677,6.33422222 C70.2895157,6.86933333 70.2007087,7.44888889 70.2007087,8.07288889 C70.2007087,8.77333333 70.3015866,9.39733333 70.5016181,9.944 C70.7025118,10.4906667 70.9741063,10.9511111 71.3172638,11.3262222 C71.6595591,11.7022222 72.0587598,11.9875556 72.5140039,12.1831111 C72.969248,12.3795556 73.4512205,12.4773333 73.9599213,12.4773333 C74.2487598,12.4773333 74.540185,12.4568889 74.8350591,12.4151111 C75.1290709,12.3742222 75.4196339,12.2995556 75.706748,12.192 C75.993,12.0844444 76.2697677,11.9377778 76.5379134,11.7528889 C76.8051969,11.568 77.0569606,11.3351111 77.2923425,11.0533333 L76.6577598,10.2257778 C76.5620551,10.0924444 76.4275512,10.0266667 76.2568346,10.0266667 C76.1654409,10.0266667 76.0835315,10.0444444 76.0111063,10.08 C75.9395433,10.1164444 75.8671181,10.1617778 75.7946929,10.2168889 C75.7222677,10.272 75.6463937,10.3333333 75.5662087,10.3991111 C75.4851614,10.4657778 75.3903189,10.5262222 75.2808189,10.5813333 C75.1704567,10.6364444 75.0419882,10.6817778 74.8954134,10.7182222 C74.7479764,10.7537778 74.5729488,10.7715556 74.3694685,10.7715556 C73.7797205,10.7715556 73.3158543,10.5395556 72.9752835,10.0764444 C72.6355748,9.61244444 72.4657205,8.94488889 72.4657205,8.07288889 C72.4657205,7.65866667 72.5045197,7.28622222 72.5821181,6.95466667 C72.6597165,6.624 72.7787008,6.34222222 72.9399331,6.11022222 C73.1003031,5.87822222 73.3020591,5.70044444 73.546063,5.576 C73.7892047,5.45155556 74.0771811,5.39022222 74.4091299,5.39022222 C74.6712402,5.39022222 74.8911024,5.42133333 75.0678543,5.48533333 C75.2446063,5.54844444 75.3972165,5.61777778 75.525685,5.69244444 C75.6541535,5.76622222 75.7679646,5.83555556 75.8671181,5.89866667 C75.9662717,5.96266667 76.068874,5.99466667 76.1757874,5.99466667 C76.2939094,5.99466667 76.3853031,5.97066667 76.4491063,5.92355556 C76.5137717,5.87733333 76.5775748,5.80977778 76.6422402,5.72088889 L77.2199173,4.90933333 Z M86.7852165,12.3528889 L86.7852165,5.456 L88.7691496,5.456 L88.7691496,3.86666667 L86.7127913,3.86666667 L86.7127913,3.36977778 C86.7127913,3.07111111 86.7455551,2.82222222 86.8093583,2.62044444 C86.8740236,2.41866667 86.9671417,2.25866667 87.090437,2.14044444 C87.2137323,2.02133333 87.3646181,1.93688889 87.5448189,1.88711111 C87.7232953,1.83822222 87.9259134,1.81333333 88.1509488,1.81333333 C88.3113189,1.81333333 88.4570315,1.78666667 88.5880866,1.73422222 C88.7200039,1.68177778 88.7907047,1.56977778 88.8010512,1.39911111 L88.8493346,0.272888889 C88.6725827,0.223111111 88.4975551,0.185777778 88.3233898,0.160888889 C88.1492244,0.136 87.966437,0.123555556 87.7733031,0.123555556 C87.2749488,0.123555556 86.8283268,0.198222222 86.4317126,0.347555556 C86.0359606,0.496888889 85.7014252,0.707555556 85.4281063,0.980444444 C85.1547874,1.25422222 84.9452717,1.58844444 84.7978346,1.98311111 C84.6503976,2.37777778 84.5771102,2.81777778 84.5771102,3.30311111 L84.5771102,3.86666667 L81.1558819,3.86666667 L81.1558819,1.26666667 L79.9988031,1.26666667 C79.7315197,1.26666667 79.5677008,1.39111111 79.5090709,1.63911111 L79.059,3.84977778 L77.7337913,4.09866667 L77.7337913,4.99288889 C77.7337913,5.14666667 77.7751772,5.26311111 77.858811,5.34044444 C77.9415827,5.41777778 78.0415984,5.456 78.1597205,5.456 L78.9391535,5.456 L78.9391535,10.0595556 C78.9391535,10.4355556 78.9900236,10.7715556 79.0917638,11.0702222 C79.1926417,11.368 79.3426654,11.6222222 79.5409724,11.832 C79.7392795,12.0417778 79.9832835,12.2026667 80.272122,12.3155556 C80.5609606,12.4293333 80.8929094,12.4853333 81.2679685,12.4853333 C81.6801024,12.4853333 82.0793031,12.4222222 82.4647087,12.2951111 C82.8501142,12.168 83.1949961,11.9804444 83.5002165,11.7324444 L82.8337323,10.6391111 C82.7914843,10.568 82.748374,10.5164444 82.7052638,10.4862222 C82.6630157,10.456 82.6095591,10.4408889 82.5448937,10.4408889 C82.4966102,10.4408889 82.4500512,10.4533333 82.4043543,10.4782222 C82.3586575,10.5031111 82.3095118,10.5306667 82.2560551,10.5608889 C82.2025984,10.5911111 82.1379331,10.6186667 82.0629213,10.6435556 C81.9879094,10.6684444 81.897378,10.6808889 81.7896024,10.6808889 C81.586122,10.6808889 81.430063,10.6115556 81.3197008,10.4737778 C81.2102008,10.336 81.1558819,10.1484444 81.1558819,9.91111111 L81.1558819,5.456 L84.5771102,5.456 L84.5771102,12.3528889 L86.7852165,12.3528889 Z M94.856315,3.81688889 L94.856315,9.952 C94.6105866,10.1946667 94.351063,10.3866667 94.0777441,10.5271111 C93.8044252,10.6684444 93.513,10.7386667 93.2026063,10.7386667 C92.784437,10.7386667 92.4697323,10.608 92.2584921,10.3457778 C92.047252,10.0835556 91.9412008,9.71466667 91.9412008,9.24 L91.9412008,3.81688889 L89.7244724,3.81688889 L89.7244724,9.24 C89.7244724,9.71466667 89.7865512,10.1511111 89.9089843,10.5484444 C90.0322795,10.9457778 90.2116181,11.288 90.4478622,11.5751111 C90.6832441,11.8622222 90.9763937,12.0853333 91.327311,12.2453333 C91.6773661,12.4053333 92.0774291,12.4853333 92.5275,12.4853333 C92.8008189,12.4853333 93.0534449,12.4577778 93.2862402,12.4026667 C93.5198976,12.3475556 93.736311,12.2702222 93.9372047,12.1706667 C94.1380984,12.072 94.3269213,11.9528889 94.5036732,11.8151111 C94.6804252,11.6773333 94.8511417,11.5253333 95.0175472,11.36 L95.1615354,11.9555556 C95.2425827,12.2204444 95.4245079,12.3528889 95.7081732,12.3528889 L97.0730433,12.3528889 L97.0730433,3.81688889 L94.856315,3.81688889 Z M98.920748,12.3528889 L101.137476,12.3528889 L101.137476,0.008 L98.920748,0.008 L98.920748,12.3528889 Z M103.000701,12.3528889 L105.217429,12.3528889 L105.217429,0.008 L103.000701,0.008 L103.000701,12.3528889 Z M112.966925,3.81688889 C112.833283,3.81688889 112.709988,3.85511111 112.597902,3.93244444 C112.484953,4.00977778 112.407354,4.10933333 112.365106,4.23111111 L110.902807,8.304 C110.779512,8.63022222 110.670012,8.95555556 110.573445,9.28177778 C110.531197,9.12177778 110.486362,8.96 110.441528,8.79733333 C110.395831,8.63466667 110.343236,8.47288889 110.284606,8.31288889 L108.71022,4.23111111 C108.667972,4.12 108.598134,4.024 108.501567,3.94133333 C108.405,3.85777778 108.268772,3.81688889 108.09202,3.81688889 L106.14861,3.81688889 L109.473272,11.6657778 L107.907508,15.1102222 L109.554319,15.1102222 C109.768146,15.1102222 109.924205,15.072 110.023358,14.9946667 C110.122512,14.9173333 110.207008,14.8008889 110.276846,14.6471111 L114.742205,3.81688889 L112.966925,3.81688889 Z M115.400929,14.7457778 C115.70615,14.5084444 115.975157,14.2453333 116.207953,13.9555556 C116.440748,13.6657778 116.637331,13.3688889 116.797701,13.0648889 C116.958933,12.7617778 117.079642,12.4595556 117.159827,12.1591111 C117.240012,11.8577778 117.279673,11.5724444 117.279673,11.3013333 C117.279673,11.1031111 117.252945,10.9137778 117.199488,10.7342222 C117.146031,10.5555556 117.065846,10.3991111 116.958933,10.2666667 C116.851157,10.1342222 116.716654,10.0284444 116.552835,9.94755556 C116.389878,9.86844444 116.198469,9.82755556 115.978606,9.82755556 C115.791508,9.82755556 115.621654,9.85866667 115.469043,9.91911111 C115.316433,9.97955556 115.185378,10.0622222 115.075016,10.1671111 C114.965516,10.272 114.88102,10.3964444 114.82239,10.5395556 C114.76376,10.6835556 114.734445,10.8382222 114.734445,11.0035556 C114.734445,11.1857778 114.762035,11.3555556 114.818079,11.5128889 C114.874984,11.6702222 114.953445,11.8071111 115.055185,11.9226667 C115.156925,12.0382222 115.28022,12.1324444 115.425071,12.2044444 C115.569059,12.2764444 115.730291,12.3146667 115.907043,12.32 C115.869106,12.48 115.813925,12.632 115.742362,12.7751111 C115.669937,12.9191111 115.590614,13.0497778 115.505256,13.1688889 C115.419035,13.2871111 115.333677,13.3946667 115.248319,13.4915556 C115.162098,13.5884444 115.089673,13.6693333 115.031043,13.736 C114.98276,13.7857778 114.941374,13.8391111 114.906886,13.8977778 C114.871535,13.9555556 114.854291,14.0088889 114.854291,14.0586667 C114.854291,14.1306667 114.866362,14.1911111 114.890504,14.2408889 C114.914646,14.2906667 114.956031,14.3404444 115.015524,14.3902222 L115.400929,14.7457778 Z M127.752874,9.78666667 C127.51663,10.0791111 127.266591,10.3057778 127.001894,10.4657778 C126.736335,10.6257778 126.408697,10.7057778 126.018118,10.7057778 C125.787909,10.7057778 125.578394,10.6604444 125.391295,10.5688889 C125.204197,10.4782222 125.044689,10.3306667 124.913634,10.1262222 C124.782579,9.92177778 124.681701,9.65422222 124.612724,9.32266667 C124.542886,8.992 124.507535,8.58844444 124.507535,8.11377778 C124.507535,7.63377778 124.550646,7.21955556 124.636004,6.872 C124.722224,6.52444444 124.843795,6.23822222 125.001579,6.01511111 C125.159362,5.79111111 125.348185,5.62755556 125.568047,5.52266667 C125.787909,5.41777778 126.031051,5.36533333 126.299197,5.36533333 C126.571654,5.36533333 126.830315,5.41511111 127.074319,5.51377778 C127.317461,5.61333333 127.543358,5.78755556 127.752874,6.03555556 L127.752874,9.78666667 Z M127.752874,0.008 L127.752874,4.42133333 C127.50111,4.184 127.220894,3.99644444 126.913087,3.85777778 C126.60528,3.72 126.226772,3.65155556 125.776701,3.65155556 C125.241272,3.65155556 124.754126,3.76444444 124.315264,3.99022222 C123.876402,4.21688889 123.501343,4.52888889 123.190949,4.92622222 C122.880555,5.32355556 122.640862,5.79555556 122.47187,6.34222222 C122.30374,6.88888889 122.219244,7.47911111 122.219244,8.11377778 C122.219244,8.80977778 122.294256,9.42755556 122.44428,9.96888889 C122.593441,10.5093333 122.803819,10.9662222 123.074551,11.3386667 C123.344421,11.712 123.664299,11.9946667 124.034185,12.1875556 C124.403209,12.3804444 124.810169,12.4773333 125.255067,12.4773333 C125.543906,12.4773333 125.812051,12.4471111 126.05778,12.3866667 C126.30437,12.3253333 126.534579,12.2391111 126.748406,12.1253333 C126.963094,12.0124444 127.162264,11.8782222 127.346776,11.7235556 C127.531287,11.5697778 127.707177,11.3982222 127.87272,11.2106667 L128.058094,11.9555556 C128.13828,12.2204444 128.320205,12.3528889 128.60387,12.3528889 L129.969602,12.3528889 L129.969602,0.008 L127.752874,0.008 Z M133.767614,4.37155556 C133.730539,4.16711111 133.668461,4.024 133.583102,3.94133333 C133.497744,3.85777778 133.342547,3.81688889 133.117512,3.81688889 L131.808685,3.81688889 L131.808685,12.3528889 L134.025413,12.3528889 L134.025413,7.12888889 C134.110772,6.92444444 134.203028,6.74222222 134.302181,6.58222222 C134.401335,6.42222222 134.512559,6.28711111 134.634992,6.17688889 C134.758287,6.06577778 134.898827,5.98044444 135.05661,5.92 C135.215256,5.85955556 135.395457,5.82844444 135.598937,5.82844444 C135.738614,5.82844444 135.888638,5.84088889 136.049008,5.86577778 C136.209378,5.89066667 136.332673,5.90311111 136.418031,5.90311111 C136.514598,5.90311111 136.591335,5.88266667 136.647378,5.84088889 C136.703421,5.8 136.744807,5.72355556 136.771535,5.61333333 L136.916386,3.92444444 C136.681004,3.74222222 136.375783,3.65155556 136.000724,3.65155556 C135.540307,3.65155556 135.13852,3.792 134.796224,4.07377778 C134.453067,4.35466667 134.150433,4.73866667 133.888323,5.224 L133.767614,4.37155556 Z M137.928614,12.3528889 L140.145343,12.3528889 L140.145343,3.816 L137.928614,3.816 L137.928614,12.3528889 Z M140.297091,0.848 C140.222079,0.68 140.122063,0.532444444 139.996181,0.405333333 C139.870299,0.278222222 139.722862,0.179555556 139.554732,0.107555556 C139.38574,0.0355555556 139.205539,0 139.012406,0 C138.83048,0 138.658039,0.0355555556 138.49422,0.107555556 C138.331264,0.179555556 138.188138,0.278222222 138.064843,0.405333333 C137.941547,0.532444444 137.844118,0.68 137.771693,0.848 C137.699268,1.01688889 137.663055,1.19733333 137.663055,1.39111111 C137.663055,1.584 137.699268,1.76355556 137.771693,1.92888889 C137.844118,2.09422222 137.941547,2.24088889 138.064843,2.368 C138.188138,2.49511111 138.331264,2.59377778 138.49422,2.66577778 C138.658039,2.73777778 138.83048,2.77333333 139.012406,2.77333333 C139.205539,2.77333333 139.38574,2.73777778 139.554732,2.66577778 C139.722862,2.59377778 139.870299,2.49511111 139.996181,2.368 C140.122063,2.24088889 140.222079,2.09422222 140.297091,1.92888889 C140.372102,1.76355556 140.410039,1.584 140.410039,1.39111111 C140.410039,1.19733333 140.372102,1.01688889 140.297091,0.848 Z M147.91122,3.81688889 C147.76637,3.81688889 147.640488,3.85511111 147.533575,3.93244444 C147.426661,4.00977778 147.354236,4.10933333 147.316299,4.23111111 L145.879004,8.45333333 C145.782437,8.74044444 145.698803,9.02044444 145.626378,9.29422222 C145.553953,9.56711111 145.488425,9.84177778 145.428933,10.1173333 C145.375476,9.84177778 145.31426,9.56711111 145.244421,9.29422222 C145.174583,9.02044444 145.094398,8.74044444 145.003866,8.45333333 L143.613992,4.23111111 C143.571744,4.10933333 143.496732,4.00977778 143.389819,3.93244444 C143.282043,3.85511111 143.148402,3.81688889 142.988031,3.81688889 L141.148949,3.81688889 L144.401185,12.3528889 L146.40926,12.3528889 L149.661496,3.81688889 L147.91122,3.81688889 Z M152.135161,7.07911111 C152.226555,6.50488889 152.421413,6.06311111 152.721461,5.75377778 C153.021508,5.44533333 153.436228,5.29066667 153.966484,5.29066667 C154.25015,5.29066667 154.494154,5.33866667 154.697634,5.43555556 C154.901114,5.53244444 155.069244,5.66311111 155.203748,5.82844444 C155.33739,5.99466667 155.434819,6.18488889 155.496898,6.4 C155.558114,6.61511111 155.589154,6.84177778 155.589154,7.07911111 L152.135161,7.07911111 Z M157.066972,8.43644444 C157.168713,8.43644444 157.251484,8.42488889 157.315287,8.4 C157.379953,8.37511111 157.430823,8.32888889 157.467898,8.26311111 C157.505835,8.19644444 157.532563,8.10844444 157.548945,7.99822222 C157.564465,7.888 157.572224,7.74666667 157.572224,7.576 C157.572224,6.95733333 157.482555,6.40711111 157.303217,5.92355556 C157.123878,5.44088889 156.872114,5.03377778 156.548787,4.70222222 C156.224598,4.37155556 155.839193,4.11911111 155.391709,3.94488889 C154.945087,3.77155556 154.456217,3.68444444 153.926823,3.68444444 C153.3,3.68444444 152.737843,3.79644444 152.239488,4.01955556 C151.741996,4.24355556 151.318654,4.54577778 150.971185,4.92622222 C150.622854,5.30666667 150.356433,5.75377778 150.171921,6.26755556 C149.987409,6.78133333 149.894291,7.32711111 149.894291,7.90666667 C149.894291,8.65777778 150.002067,9.31733333 150.215894,9.88622222 C150.42972,10.4542222 150.72287,10.9306667 151.095343,11.3137778 C151.467815,11.6977778 151.904091,11.9875556 152.404169,12.1831111 C152.90511,12.3795556 153.44485,12.4773333 154.022528,12.4773333 C154.312228,12.4773333 154.611413,12.4568889 154.922669,12.4151111 C155.233063,12.3742222 155.54087,12.2995556 155.846091,12.192 C156.151311,12.0844444 156.445323,11.9377778 156.728988,11.7528889 C157.012654,11.568 157.273039,11.3351111 157.508421,11.0533333 L156.866079,10.2257778 C156.769512,10.0924444 156.63587,10.0266667 156.464291,10.0266667 C156.33065,10.0266667 156.195283,10.064 156.059055,10.1386667 C155.921965,10.2133333 155.769354,10.296 155.601224,10.3866667 C155.432232,10.4782222 155.236512,10.5608889 155.014925,10.6355556 C154.792476,10.7093333 154.528642,10.7466667 154.223421,10.7466667 C153.624189,10.7466667 153.137906,10.5617778 152.766295,10.192 C152.393823,9.82222222 152.173098,9.23733333 152.10326,8.43644444 L157.066972,8.43644444 Z M162.824776,3.81688889 L162.824776,12.5191111 C162.824776,12.7395556 162.808394,12.9235556 162.776492,13.0693333 C162.744591,13.216 162.689409,13.3333333 162.611811,13.4213333 C162.534213,13.5093333 162.43161,13.5715556 162.303142,13.608 C162.174673,13.6435556 162.010854,13.6613333 161.812547,13.6613333 C161.615102,13.6613333 161.482323,13.6835556 161.415071,13.728 C161.348681,13.7715556 161.309882,13.8488889 161.298673,13.9591111 L161.218488,15.168 C161.39524,15.2177778 161.567681,15.2568889 161.736673,15.2844444 C161.905665,15.312 162.085866,15.3253333 162.279,15.3253333 C162.792874,15.3253333 163.224839,15.2515556 163.575756,15.1022222 C163.926673,14.9528889 164.210339,14.752 164.426752,14.4977778 C164.644028,14.2435556 164.800949,13.9475556 164.896654,13.608 C164.99322,13.2684444 165.041504,12.9048889 165.041504,12.5191111 L165.041504,3.81688889 L162.824776,3.81688889 Z M165.194114,0.848 C165.119102,0.68 165.018224,0.532444444 164.893205,0.405333333 C164.767323,0.278222222 164.619886,0.179555556 164.450894,0.107555556 C164.282764,0.0355555556 164.101701,0 163.909429,0 C163.726642,0 163.554201,0.0355555556 163.391244,0.107555556 C163.227425,0.179555556 163.084299,0.278222222 162.961004,0.405333333 C162.837709,0.532444444 162.74028,0.68 162.667854,0.848 C162.596291,1.01688889 162.560079,1.19733333 162.560079,1.39111111 C162.560079,1.584 162.596291,1.76355556 162.667854,1.92888889 C162.74028,2.09422222 162.837709,2.24088889 162.961004,2.368 C163.084299,2.49511111 163.227425,2.59377778 163.391244,2.66577778 C163.554201,2.73777778 163.726642,2.77333333 163.909429,2.77333333 C164.101701,2.77333333 164.282764,2.73777778 164.450894,2.66577778 C164.619886,2.59377778 164.767323,2.49511111 164.893205,2.368 C165.018224,2.24088889 165.119102,2.09422222 165.194114,1.92888889 C165.269126,1.76355556 165.306201,1.584 165.306201,1.39111111 C165.306201,1.19733333 165.269126,1.01688889 165.194114,0.848 Z M168.964535,3.99022222 C168.453248,4.19466667 168.015248,4.48622222 167.651398,4.864 C167.287547,5.24266667 167.004744,5.70222222 166.80385,6.24266667 C166.603819,6.784 166.502941,7.39377778 166.502941,8.07288889 C166.502941,8.75111111 166.603819,9.36266667 166.80385,9.90666667 C167.004744,10.4506667 167.287547,10.9128889 167.651398,11.2933333 C168.015248,11.6746667 168.453248,11.9671111 168.964535,12.1706667 C169.475823,12.3751111 170.044878,12.4773333 170.671701,12.4773333 C171.292488,12.4773333 171.857232,12.3751111 172.365933,12.1706667 C172.874634,11.9671111 173.310909,11.6746667 173.67476,11.2933333 C174.039472,10.9128889 174.320551,10.4506667 174.517996,9.90666667 C174.716303,9.36266667 174.815457,8.75111111 174.815457,8.07288889 C174.815457,7.39377778 174.716303,6.784 174.517996,6.24266667 C174.320551,5.70222222 174.039472,5.24266667 173.67476,4.864 C173.310909,4.48622222 172.874634,4.19466667 172.365933,3.99022222 C171.857232,3.78666667 171.292488,3.68444444 170.671701,3.68444444 C170.044878,3.68444444 169.475823,3.78666667 168.964535,3.99022222 Z M169.242165,10.0888889 C168.936945,9.63911111 168.784335,8.96977778 168.784335,8.08088889 C168.784335,7.19733333 168.936945,6.53155556 169.242165,6.08088889 C169.546524,5.63111111 170.023323,5.40622222 170.671701,5.40622222 C171.302835,5.40622222 171.771874,5.63111111 172.077094,6.08088889 C172.382315,6.53155556 172.534925,7.19733333 172.534925,8.08088889 C172.534925,8.96977778 172.382315,9.63911111 172.077094,10.0888889 C171.771874,10.5386667 171.302835,10.7635556 170.671701,10.7635556 C170.023323,10.7635556 169.546524,10.5386667 169.242165,10.0888889 Z M181.810524,3.81688889 C181.676882,3.81688889 181.553587,3.85511111 181.4415,3.93244444 C181.328551,4.00977778 181.250953,4.10933333 181.208705,4.23111111 L179.746406,8.304 C179.62311,8.63022222 179.51361,8.95555556 179.417906,9.28177778 C179.374795,9.12177778 179.329961,8.96 179.285126,8.79733333 C179.239429,8.63466667 179.186835,8.47288889 179.128205,8.31288889 L177.553819,4.23111111 C177.511571,4.12 177.441732,4.024 177.345165,3.94133333 C177.248598,3.85777778 177.11237,3.81688889 176.935618,3.81688889 L174.992209,3.81688889 L178.31687,11.6657778 L176.751106,15.1102222 L178.397055,15.1102222 C178.611744,15.1102222 178.767803,15.072 178.866957,14.9946667 C178.96611,14.9173333 179.050606,14.8008889 179.120445,14.6471111 L183.585803,3.81688889 L181.810524,3.81688889 Z M187.263969,12.3528889 L187.263969,5.456 L189.247902,5.456 L189.247902,3.86666667 L187.191543,3.86666667 L187.191543,3.36977778 C187.191543,3.07111111 187.223445,2.82222222 187.28811,2.62044444 C187.352776,2.41866667 187.445894,2.25866667 187.569189,2.14044444 C187.692484,2.02133333 187.84337,1.93688889 188.022709,1.88711111 C188.202047,1.83822222 188.404665,1.81333333 188.629701,1.81333333 C188.790071,1.81333333 188.935783,1.78666667 189.066839,1.73422222 C189.197894,1.68177778 189.269457,1.56977778 189.279803,1.39911111 L189.328087,0.272888889 C189.151335,0.223111111 188.976307,0.185777778 188.802142,0.160888889 C188.627976,0.136 188.444327,0.123555556 188.252055,0.123555556 C187.753701,0.123555556 187.307079,0.198222222 186.910465,0.347555556 C186.514713,0.496888889 186.180177,0.707555556 185.906858,0.980444444 C185.633539,1.25422222 185.423161,1.58844444 185.276587,1.98311111 C185.12915,2.37777778 185.055,2.81777778 185.055,3.30311111 L185.055,3.86666667 L183.8505,3.86666667 L183.8505,4.77688889 C183.8505,4.94311111 183.903094,5.07022222 184.007421,5.15822222 C184.111748,5.24622222 184.247114,5.30666667 184.412657,5.34044444 L185.055,5.456 L185.055,12.3528889 L187.263969,12.3528889 Z M195.319547,3.81688889 L195.319547,9.952 C195.072957,10.1946667 194.813433,10.3866667 194.540114,10.5271111 C194.267657,10.6684444 193.97537,10.7386667 193.664976,10.7386667 C193.247669,10.7386667 192.932965,10.608 192.720862,10.3457778 C192.509622,10.0835556 192.404433,9.71466667 192.404433,9.24 L192.404433,3.81688889 L190.187705,3.81688889 L190.187705,9.24 C190.187705,9.71466667 190.248921,10.1511111 190.372217,10.5484444 C190.495512,10.9457778 190.67485,11.288 190.910232,11.5751111 C191.145614,11.8622222 191.438764,12.0853333 191.789681,12.2453333 C192.140598,12.4053333 192.540661,12.4853333 192.990732,12.4853333 C193.263189,12.4853333 193.516677,12.4577778 193.749472,12.4026667 C193.982268,12.3475556 194.198681,12.2702222 194.399575,12.1706667 C194.600469,12.072 194.789291,11.9528889 194.966043,11.8151111 C195.142795,11.6773333 195.314374,11.5253333 195.479917,11.36 L195.624768,11.9555556 C195.704953,12.2204444 195.886878,12.3528889 196.170543,12.3528889 L197.536276,12.3528889 L197.536276,3.81688889 L195.319547,3.81688889 Z M199.383118,12.3528889 L201.599846,12.3528889 L201.599846,0.008 L199.383118,0.008 L199.383118,12.3528889 Z M203.463071,12.3528889 L205.679799,12.3528889 L205.679799,0.008 L203.463071,0.008 L203.463071,12.3528889 Z M213.430157,3.81688889 C213.295654,3.81688889 213.17322,3.85511111 213.060272,3.93244444 C212.948185,4.00977778 212.870587,4.10933333 212.827476,4.23111111 L211.366039,8.304 C211.242744,8.63022222 211.133244,8.95555556 211.036677,9.28177778 C210.993567,9.12177778 210.949594,8.96 210.903898,8.79733333 C210.858201,8.63466667 210.806469,8.47288889 210.747839,8.31288889 L209.173453,4.23111111 C209.130343,4.12 209.060504,4.024 208.964799,3.94133333 C208.868232,3.85777778 208.732004,3.81688889 208.555252,3.81688889 L206.61098,3.81688889 L209.936504,11.6657778 L208.369878,15.1102222 L210.016689,15.1102222 C210.230516,15.1102222 210.387437,15.072 210.486591,14.9946667 C210.585744,14.9173333 210.669378,14.8008889 210.739217,14.6471111 L215.204575,3.81688889 L213.430157,3.81688889 Z M216.425457,0.339555556 L216.425457,5.07555556 C216.425457,5.57777778 216.450461,6.07466667 216.502193,6.56533333 C216.553063,7.05688889 216.623764,7.56711111 216.714295,8.09777778 L218.208496,8.09777778 C218.29989,7.56711111 218.370591,7.05688889 218.421461,6.56533333 C218.472331,6.07466667 218.497335,5.57777778 218.497335,5.07555556 L218.497335,0.339555556 L216.425457,0.339555556 Z M216.228874,11.6746667 C216.296126,11.8346667 216.388382,11.9742222 216.505642,12.0924444 C216.623764,12.2115556 216.761717,12.304 216.9195,12.3697778 C217.077283,12.4364444 217.249724,12.4693333 217.437685,12.4693333 C217.61961,12.4693333 217.789465,12.4364444 217.947248,12.3697778 C218.105031,12.304 218.242984,12.2115556 218.361106,12.0924444 C218.479228,11.9742222 218.572346,11.8346667 218.642185,11.6746667 C218.712024,11.5146667 218.746512,11.3404444 218.746512,11.1528889 C218.746512,10.9706667 218.712024,10.7982222 218.642185,10.6355556 C218.572346,10.472 218.479228,10.3315556 218.361106,10.2133333 C218.242984,10.0942222 218.105031,10.0008889 217.947248,9.93155556 C217.789465,9.86222222 217.61961,9.82755556 217.437685,9.82755556 C217.249724,9.82755556 217.077283,9.86222222 216.9195,9.93155556 C216.761717,10.0008889 216.623764,10.0942222 216.505642,10.2133333 C216.388382,10.3315556 216.296126,10.472 216.228874,10.6355556 C216.161622,10.7982222 216.127996,10.9706667 216.127996,11.1528889 C216.127996,11.3404444 216.161622,11.5146667 216.228874,11.6746667 Z" id="Fill-3" fill="#004071" mask="url(#mask-2)"></path>
                        </g>
                    </g>
                </g>
            </g>
        </g>
    </g>
</svg>